<?xml version="1.0" encoding="iso-8859-1"?>
<!-- Generator: Adobe Illustrator 17.1.0, SVG Export Plug-In . SVG Version: 6.00 Build 0)  -->
<!DOCTYPE svg PUBLIC "-//W3C//DTD SVG 1.1//EN" "http://www.w3.org/Graphics/SVG/1.1/DTD/svg11.dtd">
<svg version="1.1" id="Capa_1" xmlns="http://www.w3.org/2000/svg" xmlns:xlink="http://www.w3.org/1999/xlink" x="0px" y="0px"
	 viewBox="0 0 370.861 370.861" style="enable-background:new 0 0 370.861 370.861;" xml:space="preserve">
<g>
	<path d="M222.595,187.639l-35.108-74.27c-10.16-21.492-32.086-35.379-55.858-35.379H76.044v-3.92
		c0-12.609-10.258-22.867-22.866-22.867H7.5c-4.143,0-7.5,3.358-7.5,7.5v32.204c0,4.142,3.357,7.5,7.5,7.5h14.633
		c4.338,0,7.867,3.529,7.867,7.867v58.823c0,4.142,3.357,7.5,7.5,7.5s7.5-3.358,7.5-7.5v-58.823
		c0-12.609-10.258-22.867-22.867-22.867H15V66.204h38.178c4.338,0,7.866,3.529,7.866,7.867v11.42v98.333H9.809
		c-4.143,0-7.5,3.358-7.5,7.5v97.5c0,4.142,3.357,7.5,7.5,7.5h30.493c3.359,13.388,15.491,23.333,29.906,23.333
		c14.416,0,26.548-9.945,29.907-23.333h40.802c3.359,13.388,15.491,23.333,29.906,23.333c14.416,0,26.548-9.945,29.907-23.333
		h15.311c4.143,0,7.5-3.358,7.5-7.5v-97.113c0.007-0.129,0.02-0.256,0.02-0.387C223.561,189.985,223.21,188.728,222.595,187.639z
		 M76.044,92.991h55.584c11.071,0,21.61,3.983,29.876,10.832h-25.892c-16.646,0-30.188,13.542-30.188,30.188v0.458
		c0,16.646,13.542,30.188,30.188,30.188h35.211c4.143,0,7.5-3.358,7.5-7.5s-3.357-7.5-7.5-7.5h-35.211
		c-8.374,0-15.188-6.813-15.188-15.188v-0.458c0-8.375,6.813-15.188,15.188-15.188h37.839c0.16,0.318,0.322,0.635,0.475,0.958
		l30.274,64.044H76.044V92.991z M70.208,304.658c-8.73,0-15.833-7.103-15.833-15.833s7.103-15.833,15.833-15.833
		s15.834,7.103,15.834,15.833S78.938,304.658,70.208,304.658z M170.823,304.658c-8.73,0-15.833-7.103-15.833-15.833
		s7.103-15.833,15.833-15.833c8.724,0,15.822,7.093,15.833,15.814c0,0.007-0.001,0.013-0.001,0.019s0.001,0.013,0.001,0.019
		C186.646,297.565,179.547,304.658,170.823,304.658z M208.541,281.324h-7.811c-3.359-13.388-15.491-23.333-29.907-23.333
		c-14.415,0-26.547,9.945-29.906,23.333h-40.802c-3.359-13.388-15.491-23.333-29.907-23.333c-14.415,0-26.547,9.945-29.906,23.333
		H17.309v-82.5h51.235h139.997V281.324z"/>
	<path d="M363.361,281.324H254.375V58.704c0-4.142-3.357-7.5-7.5-7.5s-7.5,3.358-7.5,7.5v230.121c0,4.142,3.357,7.5,7.5,7.5h116.486
		c4.143,0,7.5-3.358,7.5-7.5S367.504,281.324,363.361,281.324z"/>
	<path d="M363.361,95.473h-87.988c-4.143,0-7.5,3.358-7.5,7.5v27.086v27.086v27.086v27.086v27.086v27.086c0,4.142,3.357,7.5,7.5,7.5
		h87.988c4.143,0,7.5-3.358,7.5-7.5v-27.086v-27.086v-27.086v-27.086v-27.086v-27.086C370.861,98.831,367.504,95.473,363.361,95.473
		z M355.861,149.646h-72.988v-12.086h72.988V149.646z M355.861,176.731h-72.988v-12.086h72.988V176.731z M282.873,191.731h72.988
		v12.086h-72.988V191.731z M282.873,110.473h72.988v12.086h-72.988V110.473z M355.861,257.991h-72.988v-19.586v-19.586h72.988
		v12.086h-46.098c-4.143,0-7.5,3.358-7.5,7.5s3.357,7.5,7.5,7.5h46.098V257.991z"/>
</g>
<g>
</g>
<g>
</g>
<g>
</g>
<g>
</g>
<g>
</g>
<g>
</g>
<g>
</g>
<g>
</g>
<g>
</g>
<g>
</g>
<g>
</g>
<g>
</g>
<g>
</g>
<g>
</g>
<g>
</g>
</svg>
