<svg id="Layer_5" enable-background="new 0 0 64 64" height="512" viewBox="0 0 64 64" width="512" xmlns="http://www.w3.org/2000/svg"><g><path d="m50 50c-1.654 0-3 1.346-3 3s1.346 3 3 3 3-1.346 3-3-1.346-3-3-3zm0 4c-.552 0-1-.448-1-1s.448-1 1-1 1 .448 1 1-.448 1-1 1z"/><path d="m50 46c-3.859 0-7 3.141-7 7s3.141 7 7 7 7-3.141 7-7-3.141-7-7-7zm0 12c-2.757 0-5-2.243-5-5s2.243-5 5-5 5 2.243 5 5-2.243 5-5 5z"/><path d="m32 50c-1.654 0-3 1.346-3 3s1.346 3 3 3 3-1.346 3-3-1.346-3-3-3zm0 4c-.552 0-1-.448-1-1s.448-1 1-1 1 .448 1 1-.448 1-1 1z"/><path d="m32 46c-3.859 0-7 3.141-7 7s3.141 7 7 7 7-3.141 7-7-3.141-7-7-7zm0 12c-2.757 0-5-2.243-5-5s2.243-5 5-5 5 2.243 5 5-2.243 5-5 5z"/><path d="m14 50c-1.654 0-3 1.346-3 3s1.346 3 3 3 3-1.346 3-3-1.346-3-3-3zm0 4c-.552 0-1-.448-1-1s.448-1 1-1 1 .448 1 1-.448 1-1 1z"/><path d="m14 46c-3.859 0-7 3.141-7 7s3.141 7 7 7 7-3.141 7-7-3.141-7-7-7zm0 12c-2.757 0-5-2.243-5-5s2.243-5 5-5 5 2.243 5 5-2.243 5-5 5z"/><path d="m54.764 43.166c.152-.359.236-.753.236-1.166v-1h1c1.654 0 3-1.346 3-3v-2-1.944c0-3.83-1.942-7.232-4.936-9.236 1.227-1.289 1.936-3.003 1.936-4.82v-9c0-5.514-4.486-10-10-10s-10 4.486-10 10v9c0 1.817.709 3.531 1.935 4.82-2.993 2.004-4.935 5.406-4.935 9.236v1.944 2c0 1.654 1.346 3 3 3h1v1c0 .352.072.686.184 1h-10.368c.112-.314.184-.648.184-1v-1h1c1.654 0 3-1.346 3-3v-2-1.944c0-5.437-3.905-10.026-9.193-10.95l-.123-.49c1.364-.639 2.316-2.014 2.316-3.616h.047c2.18 0 3.953-1.794 3.953-4 0-.601-.141-1.166-.377-1.678.245-.764.377-1.555.377-2.362v-.354c0-2.526-1.223-4.876-3.28-6.325-1.449-2.058-3.799-3.281-6.325-3.281h-1.305c-5.012 0-9.09 4.078-9.09 9.09 0 1.021.179 2.019.512 2.978-.316.575-.512 1.228-.512 1.932 0 2.206 1.77 4 3.945 4h.055c0 1.602.952 2.977 2.316 3.615l-.123.49c-5.288.924-9.193 5.514-9.193 10.951v1.944 2c0 1.654 1.346 3 3 3h1v1c0 .413.084.807.236 1.166-4.674.837-8.236 4.923-8.236 9.834 0 5.514 4.486 10 10 10h42c5.514 0 10-4.486 10-10 0-4.911-3.562-8.997-8.236-9.834zm1.236-4.166h-1v-4h1c.552 0 1 .448 1 1v2c0 .552-.448 1-1 1zm-6.192-15.895-.123-.49c1.363-.638 2.315-2.013 2.315-3.615h.047c.714 0 1.375-.207 1.953-.543v1.543c0 1.486-.661 2.878-1.785 3.824-.762-.322-1.565-.571-2.407-.719zm-9.808-6.105h-.055c-1.072 0-1.945-.897-1.945-2s.873-2 1.945-2h.055zm2-4h8v6c0 1.103-.897 2-2 2h-4c-1.103 0-2-.897-2-2zm10 0h.047c1.077 0 1.953.897 1.953 2s-.876 2-1.953 2h-.047zm-7.72 10h3.44l.214.859c-.396.702-1.121 1.141-1.934 1.141s-1.538-.439-1.934-1.141zm1.72-20c4.411 0 8 3.589 8 8v.543c-.579-.336-1.239-.543-1.953-.543h-.047-.938-.062c-.605 0-.997-1.777-1-3.001l-2 .001c0 1.012.152 2.099.509 3h-1.509c-.605 0-.997-1.777-1-3.001l-2 .001c0 1.012.152 2.099.509 3h-1.509c-.605 0-.997-1.777-1-3.001l-2 .001c0 1.012.152 2.099.509 3h-.509-.055c-.711 0-1.369.206-1.945.541v-.541c0-4.411 3.589-8 8-8zm-8 17v-1.541c.577.335 1.235.541 1.945.541h.055c0 1.602.952 2.977 2.315 3.615l-.123.49c-.843.147-1.645.397-2.407.719-1.125-.946-1.785-2.337-1.785-3.824zm4.469 5.096c.778 1.184 2.087 1.904 3.531 1.904s2.753-.72 3.531-1.904c4.01.734 7.037 4.035 7.426 8.075-.303-.103-.621-.171-.957-.171h-1v-1c0-1.654-1.346-3-3-3h-12c-1.654 0-3 1.346-3 3v1h-1c-.336 0-.654.068-.957.171.389-4.04 3.415-7.341 7.426-8.075zm2.531 5.904h2v2h-2zm-9 8c-.552 0-1-.448-1-1v-2c0-.552.448-1 1-1h1v4zm3 3v-10c0-.552.448-1 1-1h3v4h6v-4h3c.552 0 1 .448 1 1v10c0 .552-.448 1-1 1h-12c-.552 0-1-.448-1-1zm-28 0v-10c0-.552.448-1 1-1h3v4h6v-4h3c.552 0 1 .448 1 1v10c0 .552-.448 1-1 1h-12c-.552 0-1-.448-1-1zm6-11h2v2h-2zm11 8h-1v-4h1c.552 0 1 .448 1 1v2c0 .552-.448 1-1 1zm-8.281-16 .173.694-1.892 1.892-1.892-1.892.173-.694zm4.328-6h-.047v-4h.047c1.077 0 1.953.897 1.953 2s-.876 2-1.953 2zm-12.102 0c-1.072 0-1.945-.897-1.945-2s.873-2 1.945-2h.055v4zm.752-6h-.752c-.656 0-1.266.179-1.811.467-.089-.451-.134-.912-.134-1.377 0-3.909 3.181-7.09 7.09-7.09h1.305c1.923 0 3.707.955 4.773 2.555l.111.166.166.111c1.6 1.066 2.555 2.851 2.555 4.773v.354c0 .188-.033.37-.051.555-.567-.317-1.209-.514-1.902-.514h-.908l-7.309-2.089zm1.303 1.535 2.17-1.446 5.83 1.665v6.246c0 1.103-.897 2-2 2h-4c-1.103 0-2-.897-2-2zm.653 12.532 3.347 3.347 3.347-3.347c4.101.666 7.214 4.003 7.609 8.104-.302-.103-.62-.171-.956-.171h-1v-1c0-1.654-1.346-3-3-3h-12c-1.654 0-3 1.346-3 3v1h-1c-.336 0-.654.068-.957.171.395-4.101 3.509-7.439 7.61-8.104zm-6.653 13.933c-.552 0-1-.448-1-1v-2c0-.552.448-1 1-1h1v4zm45 22h-42c-4.411 0-8-3.589-8-8s3.589-8 8-8h1 12 16 12 1c4.411 0 8 3.589 8 8s-3.589 8-8 8z"/></g></svg>