<?xml version="1.0" encoding="iso-8859-1"?>
<!-- Generator: Adobe Illustrator 18.1.1, SVG Export Plug-In . SVG Version: 6.00 Build 0)  -->
<svg version="1.1" id="Capa_1" xmlns="http://www.w3.org/2000/svg" xmlns:xlink="http://www.w3.org/1999/xlink" x="0px" y="0px"
	 viewBox="0 0 16.207 16.207" style="enable-background:new 0 0 16.207 16.207;" xml:space="preserve">
<g>
	<g>
		<path style="fill:#030104;" d="M9.937,5.939h5.426c0-1.977-1.151-3.455-2.969-3.961l-0.653,2.436l0.16-3.079
			c-0.902-0.392-1.694,0-1.694,0l0.16,3.079L9.715,1.978c-0.55,0.153-1.038,0.397-1.454,0.716C9.202,3.491,9.797,4.619,9.937,5.939z
			"/>
		<path style="fill:#030104;" d="M16.206,6.293H9.855v0.283l0.962,0.016l-0.001,1.521H9.738C9.714,8.398,9.671,9.237,9.626,9.457
			c0.142,0.456,0.123,1.025-0.058,1.7c-0.06,0.323-0.177,0.622-0.345,0.877c-0.111,0.469-0.291,0.914-0.521,1.33
			c0.646,0.653,1.462,1.072,2.271,1.072c1.682,0,3.356-1.56,3.703-3.428c0.121-0.137,0.251-0.354,0.303-0.681
			c0.126-0.458,0.223-1.061-0.011-1.396c0.077-0.297,0.153-0.691,0.176-1.129c0.03-0.072,0.033-0.153,0.005-0.229
			c0-0.042,0-0.081-0.001-0.11l0.003-0.047c0.001-0.023,0-0.047-0.004-0.071l-0.043-0.237h1.103V6.293H16.206z"/>
		<path style="fill:#030104;" d="M6.388,2.59L5.735,5.026l0.16-3.08c-0.903-0.391-1.694,0-1.694,0l0.16,3.08L3.708,2.59
			C1.891,3.095,0.74,4.573,0.74,6.55h8.616C9.356,4.574,8.205,3.096,6.388,2.59z"/>
		<path style="fill:#030104;" d="M8.961,9.543C9.038,9.246,9.114,8.85,9.136,8.414C9.167,8.342,9.17,8.261,9.142,8.185
			c0-0.043,0-0.08-0.001-0.11l0.003-0.048c0.001-0.023,0-0.047-0.006-0.071L9.097,7.72H10.2V6.906H0V7.72h1.118L1.115,7.992
			c0,0.001,0,0.096,0,0.153C1.047,8.354,1.066,8.487,1.25,9.46C1.23,9.481,1.21,9.503,1.193,9.527
			c-0.265,0.352-0.134,1.016-0.027,1.393c0.055,0.335,0.182,0.556,0.302,0.694c0.305,1.84,1.918,3.433,3.5,3.433
			c1.682,0,3.356-1.56,3.703-3.427c0.121-0.139,0.249-0.354,0.303-0.682C9.097,10.481,9.194,9.879,8.961,9.543z"/>
	</g>
</g>
<g>
</g>
<g>
</g>
<g>
</g>
<g>
</g>
<g>
</g>
<g>
</g>
<g>
</g>
<g>
</g>
<g>
</g>
<g>
</g>
<g>
</g>
<g>
</g>
<g>
</g>
<g>
</g>
<g>
</g>
</svg>
